<mxfile host="app.diagrams.net" modified="2023-10-14T05:41:24.397Z" agent="Mozilla/5.0 (Windows NT 10.0; Win64; x64) AppleWebKit/537.36 (KHTML, like Gecko) Chrome/117.0.0.0 Safari/537.36 Edg/117.0.2045.60" etag="z2SEKj7aBZzGHNpzjy5d" version="22.0.4" type="device">
  <diagram name="Page-1" id="VSr6sMYYl4fEP5RemYB_">
    <mxGraphModel dx="1786" dy="1643" grid="0" gridSize="10" guides="1" tooltips="1" connect="1" arrows="1" fold="1" page="0" pageScale="1" pageWidth="1100" pageHeight="850" math="0" shadow="0">
      <root>
        <mxCell id="0" />
        <mxCell id="1" parent="0" />
        <mxCell id="X1boQf_LF27DJ73jZzlj-14" style="edgeStyle=none;curved=1;rounded=0;orthogonalLoop=1;jettySize=auto;html=1;entryX=0.5;entryY=0;entryDx=0;entryDy=0;fontSize=12;startSize=8;endSize=8;" parent="1" source="X1boQf_LF27DJ73jZzlj-6" target="X1boQf_LF27DJ73jZzlj-7" edge="1">
          <mxGeometry relative="1" as="geometry" />
        </mxCell>
        <mxCell id="X1boQf_LF27DJ73jZzlj-6" value="&lt;b&gt;Vector Assembler&lt;/b&gt;&amp;nbsp;&amp;nbsp;&lt;br&gt;&lt;font style=&quot;font-size: 14px;&quot;&gt;- create a feature vector from the defined feature set&amp;nbsp;&lt;/font&gt;" style="rounded=0;whiteSpace=wrap;html=1;fontSize=16;fillColor=#f8cecc;strokeColor=#b85450;" parent="1" vertex="1">
          <mxGeometry x="-45" y="-612" width="373" height="70" as="geometry" />
        </mxCell>
        <mxCell id="X1boQf_LF27DJ73jZzlj-15" style="edgeStyle=none;curved=1;rounded=0;orthogonalLoop=1;jettySize=auto;html=1;fontSize=12;startSize=8;endSize=8;" parent="1" source="X1boQf_LF27DJ73jZzlj-7" target="X1boQf_LF27DJ73jZzlj-10" edge="1">
          <mxGeometry relative="1" as="geometry" />
        </mxCell>
        <mxCell id="X1boQf_LF27DJ73jZzlj-7" value="&lt;b&gt;Robust Scaler (optional)&lt;/b&gt;&lt;br&gt;&lt;font style=&quot;font-size: 14px;&quot;&gt;- scale the features within proper ranges by the median and the Inter-Quartile-Range (IQR)&lt;/font&gt;" style="rounded=0;whiteSpace=wrap;html=1;fontSize=16;fillColor=#f8cecc;strokeColor=#b85450;" parent="1" vertex="1">
          <mxGeometry x="-45" y="-508" width="373" height="70" as="geometry" />
        </mxCell>
        <mxCell id="mlzALzyGX76ZYQnrM9cR-6" style="edgeStyle=none;curved=1;rounded=0;orthogonalLoop=1;jettySize=auto;html=1;fontSize=12;startSize=8;endSize=8;" edge="1" parent="1" source="X1boQf_LF27DJ73jZzlj-8" target="mlzALzyGX76ZYQnrM9cR-5">
          <mxGeometry relative="1" as="geometry" />
        </mxCell>
        <mxCell id="X1boQf_LF27DJ73jZzlj-8" value="&lt;b&gt;Create Lag Sequences&lt;/b&gt;&amp;nbsp;&lt;br&gt;&lt;font style=&quot;font-size: 14px;&quot;&gt;- create 12 temporal lag sequences on the feature vector for the next 12 months&amp;nbsp;&lt;/font&gt;" style="rounded=0;whiteSpace=wrap;html=1;fontSize=16;fillColor=#f8cecc;strokeColor=#b85450;" parent="1" vertex="1">
          <mxGeometry x="-45" y="-300" width="373" height="70" as="geometry" />
        </mxCell>
        <mxCell id="X1boQf_LF27DJ73jZzlj-9" value="&lt;b&gt;DEEP LEARNING PIPELINE - LSTM RECURRENT NEURAL NETWORK&lt;/b&gt;" style="shape=umlFrame;whiteSpace=wrap;html=1;pointerEvents=0;fontSize=16;width=565;height=46;fillColor=#ffe6cc;strokeColor=#d79b00;" parent="1" vertex="1">
          <mxGeometry x="-132" y="-690" width="565" height="909" as="geometry" />
        </mxCell>
        <mxCell id="X1boQf_LF27DJ73jZzlj-16" style="edgeStyle=none;curved=1;rounded=0;orthogonalLoop=1;jettySize=auto;html=1;entryX=0.5;entryY=0;entryDx=0;entryDy=0;fontSize=12;startSize=8;endSize=8;" parent="1" source="X1boQf_LF27DJ73jZzlj-10" target="X1boQf_LF27DJ73jZzlj-8" edge="1">
          <mxGeometry relative="1" as="geometry" />
        </mxCell>
        <mxCell id="X1boQf_LF27DJ73jZzlj-10" value="&lt;b&gt;Define Training and Test Data&lt;br&gt;&lt;/b&gt;&lt;font style=&quot;font-size: 14px;&quot;&gt;- Train on data from 2019 to 2022 and validate on 2023&lt;/font&gt;" style="rounded=0;whiteSpace=wrap;html=1;fontSize=16;fillColor=#f8cecc;strokeColor=#b85450;" parent="1" vertex="1">
          <mxGeometry x="-45" y="-404" width="373" height="70" as="geometry" />
        </mxCell>
        <mxCell id="mlzALzyGX76ZYQnrM9cR-2" style="edgeStyle=none;curved=1;rounded=0;orthogonalLoop=1;jettySize=auto;html=1;fontSize=12;startSize=8;endSize=8;" edge="1" parent="1" source="X1boQf_LF27DJ73jZzlj-11" target="mlzALzyGX76ZYQnrM9cR-1">
          <mxGeometry relative="1" as="geometry" />
        </mxCell>
        <mxCell id="X1boQf_LF27DJ73jZzlj-11" value="&lt;b&gt;Define LSTM model with Early Stopping&amp;nbsp;&lt;/b&gt;&lt;br&gt;&lt;font style=&quot;font-size: 14px;&quot;&gt;- Find the optimal no. of epochs for the LSTM model and prevent overfitting using&amp;nbsp; Keras Callbacks function&lt;/font&gt;" style="rounded=0;whiteSpace=wrap;html=1;fontSize=16;fillColor=#f8cecc;strokeColor=#b85450;" parent="1" vertex="1">
          <mxGeometry x="-45" y="-94" width="373" height="70" as="geometry" />
        </mxCell>
        <mxCell id="mlzALzyGX76ZYQnrM9cR-4" style="edgeStyle=none;curved=1;rounded=0;orthogonalLoop=1;jettySize=auto;html=1;fontSize=12;startSize=8;endSize=8;" edge="1" parent="1" source="mlzALzyGX76ZYQnrM9cR-1" target="mlzALzyGX76ZYQnrM9cR-3">
          <mxGeometry relative="1" as="geometry" />
        </mxCell>
        <mxCell id="mlzALzyGX76ZYQnrM9cR-1" value="&lt;b&gt;Fit, Transform, and Predict&lt;/b&gt;&amp;nbsp;&lt;br&gt;&lt;font style=&quot;font-size: 14px;&quot;&gt;- use the tuned LSTM with early stopping to forecast the&amp;nbsp; highest stock price for the next 6 months&lt;/font&gt;" style="rounded=0;whiteSpace=wrap;html=1;fontSize=16;fillColor=#f8cecc;strokeColor=#b85450;" vertex="1" parent="1">
          <mxGeometry x="-45" y="11" width="373" height="70" as="geometry" />
        </mxCell>
        <mxCell id="mlzALzyGX76ZYQnrM9cR-3" value="&lt;b&gt;Performance Evaluation&lt;/b&gt;&amp;nbsp;&lt;br&gt;&lt;font style=&quot;font-size: 14px;&quot;&gt;- use Regression Testing metrics like RMSE, MAE and MAPE to evaluate LSTM&#39;s performance&amp;nbsp;&lt;/font&gt;" style="rounded=0;whiteSpace=wrap;html=1;fontSize=16;fillColor=#f8cecc;strokeColor=#b85450;" vertex="1" parent="1">
          <mxGeometry x="-43" y="120" width="373" height="70" as="geometry" />
        </mxCell>
        <mxCell id="mlzALzyGX76ZYQnrM9cR-7" style="edgeStyle=none;curved=1;rounded=0;orthogonalLoop=1;jettySize=auto;html=1;entryX=0.5;entryY=0;entryDx=0;entryDy=0;fontSize=12;startSize=8;endSize=8;" edge="1" parent="1" source="mlzALzyGX76ZYQnrM9cR-5" target="X1boQf_LF27DJ73jZzlj-11">
          <mxGeometry relative="1" as="geometry" />
        </mxCell>
        <mxCell id="mlzALzyGX76ZYQnrM9cR-5" value="&lt;b&gt;Determine the no.of output layers&lt;/b&gt;&amp;nbsp;&lt;br&gt;&lt;font style=&quot;font-size: 14px;&quot;&gt;- if the forecast for the next N timesteps is required, then no. of output layers = (N + 1)&amp;nbsp;&lt;/font&gt;" style="rounded=0;whiteSpace=wrap;html=1;fontSize=16;fillColor=#f8cecc;strokeColor=#b85450;" vertex="1" parent="1">
          <mxGeometry x="-45" y="-198" width="373" height="70" as="geometry" />
        </mxCell>
      </root>
    </mxGraphModel>
  </diagram>
</mxfile>
